<?xml version="1.0" encoding="UTF-8"?>
<svg width="30px" height="30px" viewBox="0 0 30 30" version="1.1" xmlns="http://www.w3.org/2000/svg" xmlns:xlink="http://www.w3.org/1999/xlink">
    <!-- Generator: Sketch 52.5 (67469) - http://www.bohemiancoding.com/sketch -->
    <title>icon/menu</title>
    <desc>Created with Sketch.</desc>
    <defs>
        <path d="M22.4545455,11.1666667 L7.54545455,11.1666667 C7.25454545,11.1666667 7,10.9138889 7,10.625 L7,9.54166667 C7,9.25277778 7.25454545,9 7.54545455,9 L22.4545455,9 C22.7454545,9 23,9.25277778 23,9.54166667 L23,10.625 C23,10.9138889 22.7454545,11.1666667 22.4545455,11.1666667 Z M22.4545455,16.5472222 L7.54545455,16.5472222 C7.25454545,16.5472222 7,16.2944444 7,16.0055556 L7,14.9222222 C7,14.6694444 7.25454545,14.4166667 7.54545455,14.4166667 L22.4545455,14.4166667 C22.7454545,14.4166667 23,14.6694444 23,14.9583333 L23,16.0416667 C23,16.2944444 22.7454545,16.5472222 22.4545455,16.5472222 Z M22.4545455,22 L7.54545455,22 C7.25454545,22 7,21.7472222 7,21.4583333 L7,20.375 C7,20.0861111 7.25454545,19.8333333 7.54545455,19.8333333 L22.4545455,19.8333333 C22.7454545,19.8333333 23,20.0861111 23,20.375 L23,21.4583333 C23,21.7472222 22.7454545,22 22.4545455,22 Z" id="path-1"></path>
    </defs>
    <g id="icon/menu" stroke="none" stroke-width="1" fill="none" fill-rule="evenodd">
        <rect id="icon-bg" fill="#FFFFFF" opacity="0.6" x="0" y="0" width="30" height="30" rx="2"></rect>
        <mask id="mask-2" fill="white">
            <use xlink:href="#path-1"></use>
        </mask>
        <use id="Mask" fill="#47505C" xlink:href="#path-1"></use>
    </g>
</svg>